<?xml version="1.0" encoding="utf-8"?>
<!-- Generator: Adobe Illustrator 22.0.1, SVG Export Plug-In . SVG Version: 6.00 Build 0)  -->
<svg version="1.1" id="Layer_1" xmlns="http://www.w3.org/2000/svg" xmlns:xlink="http://www.w3.org/1999/xlink" x="0px" y="0px"
	 viewBox="0 0 160 160" style="enable-background:new 0 0 160 160;" xml:space="preserve">
<style type="text/css">
	.st0{fill:#38524F;}
	.st1{fill:none;stroke:#38524F;stroke-width:0.4;stroke-miterlimit:10;}
</style>
<g>
	<g>
		<path class="st0" d="M77.4,19.1v6.3l0.7,1.1v0.1h-2.2v-0.1l0.8-1.1v-7L76,17.4v-0.1h2.2l4.3,5.9l0.2,0.8v-5.5L82,17.4v-0.1h2.2
			v0.1l-0.7,1.1v8.2H83L77.4,19.1z"/>
	</g>
	<g>
		<path class="st0" d="M77.7,142.3l-0.8,0.3h-0.2v-2.5h0.5c0.1,0.6,0.5,1.2,0.9,1.6c0.5,0.4,1.1,0.6,1.7,0.6c0.6,0,1.2-0.2,1.5-0.5
			c0.4-0.3,0.5-0.6,0.5-1.2c0-0.4-0.1-0.7-0.3-1c-0.2-0.3-0.5-0.5-0.7-0.6c-0.3-0.2-0.6-0.4-1-0.5c-0.4-0.2-0.7-0.3-1.1-0.5
			c-0.4-0.2-0.7-0.4-1-0.5c-0.3-0.2-0.5-0.5-0.7-0.8c-0.2-0.4-0.3-0.7-0.3-1.3c0-0.5,0.1-0.8,0.3-1.2s0.5-0.6,0.7-0.8
			c0.3-0.2,0.6-0.4,1-0.4c0.4-0.1,0.7-0.1,1-0.1c1.5,0,2.6,0.5,3,1.5l-1.4,0.9h-0.2c0.1-0.2,0.1-0.4,0.1-0.6c0-0.5-0.1-0.8-0.4-1.1
			c-0.3-0.3-0.6-0.4-1.2-0.4c-0.5,0-0.9,0.1-1.2,0.4c-0.3,0.3-0.5,0.5-0.5,1c0,0.4,0.1,0.6,0.3,0.9c0.2,0.3,0.5,0.5,0.7,0.6
			c0.3,0.2,0.6,0.4,1,0.5c0.4,0.2,0.7,0.3,1.1,0.5c0.4,0.2,0.7,0.4,1,0.5c0.3,0.2,0.5,0.5,0.7,0.9c0.2,0.4,0.3,0.8,0.3,1.3
			c0,0.8-0.4,1.4-1,2c-0.6,0.5-1.4,0.7-2.5,0.7C79,142.8,78.3,142.6,77.7,142.3z"/>
	</g>
	<g>
		<path class="st0" d="M142.8,84.1c-0.3,0.3-0.6,0.5-1.1,0.5c-0.5,0.1-1.3,0.1-2.3,0.1h-4.1v-0.1l0.7-1.1v-7l-0.9-1.1v-0.1h6.5
			l0.5,2.1h-0.3l-1.8-1.6h-2.3v3.5h1.6l1-0.6h0.2v2.1h-0.2l-1-0.9h-1.6v4.4h1.2c0.7,0,1.3-0.1,1.6-0.4c0.4-0.3,0.7-0.6,1-1.2
			L142.8,84.1z"/>
	</g>
	<g>
		<path class="st0" d="M17.9,76.4l-0.6-1v-0.1h2.9v0.1l-0.5,1l1.9,5.8l1.2-4.4l-0.8-2.4v-0.1h2.5v0.1L24,76.5l1.5,5.7l1.9-5.9
			l-0.7-1v-0.1h2v0.1l-0.5,1.1l-2.9,8.4h-0.5L23,78.7l-1.7,6.1h-0.5L17.9,76.4z"/>
	</g>
	<g>
		<line class="st1" x1="74.1" y1="35.2" x2="74.5" y2="38.4"/>
		<line class="st1" x1="62.7" y1="38.3" x2="63.9" y2="41.2"/>
		<line class="st1" x1="52.5" y1="44.1" x2="54.4" y2="46.7"/>
		<line class="st1" x1="44.1" y1="52.5" x2="46.7" y2="54.4"/>
		<line class="st1" x1="38.3" y1="62.7" x2="41.2" y2="63.9"/>
		<line class="st1" x1="35.2" y1="74.1" x2="38.4" y2="74.5"/>
		<line class="st1" x1="35.2" y1="85.9" x2="38.4" y2="85.5"/>
		<line class="st1" x1="38.3" y1="97.3" x2="41.2" y2="96.1"/>
		<line class="st1" x1="44.1" y1="107.5" x2="46.7" y2="105.6"/>
		<line class="st1" x1="52.5" y1="115.9" x2="54.4" y2="113.3"/>
		<line class="st1" x1="62.7" y1="121.7" x2="63.9" y2="118.8"/>
		<line class="st1" x1="74.1" y1="124.8" x2="74.5" y2="121.6"/>
		<line class="st1" x1="85.9" y1="124.8" x2="85.5" y2="121.6"/>
		<line class="st1" x1="97.3" y1="121.7" x2="96.1" y2="118.8"/>
		<line class="st1" x1="107.5" y1="115.9" x2="105.6" y2="113.3"/>
		<line class="st1" x1="115.9" y1="107.5" x2="113.3" y2="105.6"/>
		<line class="st1" x1="121.7" y1="97.3" x2="118.8" y2="96.1"/>
		<line class="st1" x1="124.8" y1="85.9" x2="121.6" y2="85.5"/>
		<line class="st1" x1="124.8" y1="74.1" x2="121.6" y2="74.5"/>
		<line class="st1" x1="121.7" y1="62.7" x2="118.8" y2="63.9"/>
		<line class="st1" x1="115.9" y1="52.5" x2="113.3" y2="54.4"/>
		<line class="st1" x1="107.5" y1="44.1" x2="105.6" y2="46.7"/>
		<line class="st1" x1="97.3" y1="38.3" x2="96.1" y2="41.2"/>
		<line class="st1" x1="85.9" y1="35.2" x2="85.5" y2="38.4"/>
		<line class="st1" x1="67.1" y1="31.8" x2="69.6" y2="41.1"/>
		<line class="st1" x1="44.7" y1="44.7" x2="51.5" y2="51.5"/>
		<line class="st1" x1="31.8" y1="67.1" x2="41.1" y2="69.6"/>
		<line class="st1" x1="31.8" y1="92.9" x2="41.1" y2="90.4"/>
		<line class="st1" x1="44.7" y1="115.3" x2="51.5" y2="108.5"/>
		<line class="st1" x1="67.1" y1="128.2" x2="69.6" y2="118.9"/>
		<line class="st1" x1="92.9" y1="128.2" x2="90.4" y2="118.9"/>
		<line class="st1" x1="115.3" y1="115.3" x2="108.5" y2="108.5"/>
		<line class="st1" x1="128.2" y1="92.9" x2="118.9" y2="90.4"/>
		<line class="st1" x1="128.2" y1="67.1" x2="118.9" y2="69.6"/>
		<line class="st1" x1="115.3" y1="44.7" x2="108.5" y2="51.5"/>
		<line class="st1" x1="92.9" y1="31.8" x2="90.4" y2="41.1"/>
	</g>
	<g>
		<polygon class="st0" points="80,31.6 77.6,38 82.4,38 		"/>
		<polygon class="st0" points="31.6,80 38,82.4 38,77.6 		"/>
		<polygon class="st0" points="128.4,80 122,82.4 122,77.6 		"/>
		<polygon class="st0" points="80,128.4 77.6,122 82.4,122 		"/>
		
			<rect x="78.8" y="120.8" transform="matrix(0.7071 -0.7071 0.7071 0.7071 -62.8171 92.3457)" class="st0" width="2.4" height="2.4"/>
		
			<rect x="99.8" y="115.1" transform="matrix(0.2588 -0.9659 0.9659 0.2588 -37.56 183.789)" class="st0" width="2.4" height="2.4"/>
		
			<rect x="115.2" y="99.8" transform="matrix(0.9659 -0.2588 0.2588 0.9659 -22.1802 33.5613)" class="st0" width="2.4" height="2.4"/>
		
			<rect x="120.8" y="78.7" transform="matrix(0.7071 -0.7071 0.7071 0.7071 -20.7912 109.6804)" class="st0" width="2.4" height="2.4"/>
		
			<rect x="115.2" y="57.8" transform="matrix(0.2588 -0.9659 0.9659 0.2588 29.2715 156.1633)" class="st0" width="2.4" height="2.4"/>
		<rect x="99.8" y="42.4" transform="matrix(0.9659 -0.2588 0.2588 0.9659 -7.8451 27.625)" class="st0" width="2.4" height="2.4"/>
		
			<rect x="78.7" y="36.8" transform="matrix(0.7071 -0.7071 0.7071 0.7071 -3.4569 67.6538)" class="st0" width="2.4" height="2.4"/>
		<rect x="57.8" y="42.4" transform="matrix(0.2588 -0.9659 0.9659 0.2588 1.5834 89.3067)" class="st0" width="2.4" height="2.4"/>
		
			<rect x="42.4" y="57.8" transform="matrix(0.9659 -0.2588 0.2588 0.9659 -13.7871 13.3031)" class="st0" width="2.4" height="2.4"/>
		
			<rect x="36.8" y="78.8" transform="matrix(0.7071 -0.7071 0.7071 0.7071 -45.4832 50.3202)" class="st0" width="2.4" height="2.4"/>
		
			<rect x="42.4" y="99.8" transform="matrix(0.2588 -0.9659 0.9659 0.2588 -65.2108 117.0199)" class="st0" width="2.4" height="2.4"/>
		
			<rect x="57.8" y="115.1" transform="matrix(0.9659 -0.2588 0.2588 0.9659 -28.1033 19.2319)" class="st0" width="2.4" height="2.4"/>
	</g>
	<path class="st0" d="M80,10c-38.7,0-70,31.3-70,70s31.3,70,70,70s70-31.3,70-70S118.7,10,80,10z M80,148c-37.6,0-68-30.4-68-68
		s30.4-68,68-68s68,30.4,68,68S117.6,148,80,148z"/>
	<g>
		<path class="st0" d="M82.9,13.2h-5.7c-0.6,0-1.2-0.5-1.2-1.2l0,0c0-0.6,0.5-1.2,1.2-1.2h5.7c0.6,0,1.2,0.5,1.2,1.2l0,0
			C84,12.6,83.5,13.2,82.9,13.2z"/>
		<path class="st0" d="M65.5,14.7l-5.5,1.4c-0.6,0.2-1.3-0.2-1.4-0.8l0,0c-0.2-0.6,0.2-1.3,0.8-1.4l5.5-1.4c0.6-0.2,1.3,0.2,1.4,0.8
			l0,0C66.5,13.9,66.1,14.5,65.5,14.7z"/>
		<path class="st0" d="M49,20.7l-5,2.9c-0.5,0.3-1.3,0.1-1.5-0.5l0,0c-0.3-0.5-0.1-1.3,0.5-1.5l5-2.9c0.5-0.3,1.3-0.1,1.5,0.5l0,0
			C49.7,19.7,49.6,20.4,49,20.7z"/>
		<path class="st0" d="M34.7,30.7l-4.1,4.1c-0.5,0.5-1.2,0.5-1.6,0l0,0c-0.5-0.5-0.5-1.2,0-1.6l4.1-4.1c0.5-0.5,1.2-0.5,1.6,0l0,0
			C35.2,29.5,35.2,30.2,34.7,30.7z"/>
		<path class="st0" d="M23.5,44.1l-2.9,5c-0.3,0.5-1,0.7-1.5,0.5l0,0c-0.5-0.3-0.7-1-0.5-1.5l2.9-5c0.3-0.5,1-0.7,1.5-0.5l0,0
			C23.6,42.9,23.8,43.5,23.5,44.1z"/>
		<path class="st0" d="M16.1,59.9l-1.4,5.5c-0.2,0.6-0.8,1-1.4,0.8l0,0c-0.6-0.2-1-0.8-0.8-1.4l1.4-5.5c0.2-0.6,0.8-1,1.4-0.8l0,0
			C16,58.7,16.3,59.3,16.1,59.9z"/>
		<path class="st0" d="M13.2,77.1v5.7c0,0.6-0.5,1.2-1.2,1.2l0,0c-0.6,0-1.2-0.5-1.2-1.2v-5.7c0-0.6,0.5-1.2,1.2-1.2l0,0
			C12.6,76,13.2,76.5,13.2,77.1z"/>
		<path class="st0" d="M14.7,94.5l1.4,5.5c0.2,0.6-0.2,1.3-0.8,1.4l0,0c-0.6,0.2-1.3-0.2-1.4-0.8l-1.4-5.5c-0.2-0.6,0.2-1.3,0.8-1.4
			l0,0C13.9,93.5,14.5,93.9,14.7,94.5z"/>
		<path class="st0" d="M20.7,111l2.9,5c0.3,0.5,0.1,1.3-0.5,1.5l0,0c-0.5,0.3-1.3,0.1-1.5-0.5l-2.9-5c-0.3-0.5-0.1-1.3,0.5-1.5l0,0
			C19.7,110.3,20.4,110.4,20.7,111z"/>
		<path class="st0" d="M30.7,125.3l4.1,4.1c0.5,0.5,0.5,1.2,0,1.6l0,0c-0.5,0.5-1.2,0.5-1.6,0l-4.1-4.1c-0.5-0.5-0.5-1.2,0-1.6l0,0
			C29.5,124.8,30.2,124.8,30.7,125.3z"/>
		<path class="st0" d="M44.1,136.5l5,2.9c0.5,0.3,0.7,1,0.5,1.5l0,0c-0.3,0.5-1,0.7-1.5,0.5l-5-2.9c-0.5-0.3-0.7-1-0.5-1.5l0,0
			C42.9,136.4,43.5,136.2,44.1,136.5z"/>
		<path class="st0" d="M59.9,143.9l5.5,1.4c0.6,0.2,1,0.8,0.8,1.4l0,0c-0.2,0.6-0.8,1-1.4,0.8l-5.5-1.4c-0.6-0.2-1-0.8-0.8-1.4l0,0
			C58.7,144,59.3,143.7,59.9,143.9z"/>
		<path class="st0" d="M77.1,146.8h5.7c0.6,0,1.2,0.5,1.2,1.2l0,0c0,0.6-0.5,1.2-1.2,1.2h-5.7c-0.6,0-1.2-0.5-1.2-1.2l0,0
			C76,147.4,76.5,146.8,77.1,146.8z"/>
		<path class="st0" d="M94.5,145.3l5.5-1.4c0.6-0.2,1.3,0.2,1.4,0.8l0,0c0.2,0.6-0.2,1.3-0.8,1.4l-5.5,1.4c-0.6,0.2-1.3-0.2-1.4-0.8
			l0,0C93.5,146.1,93.9,145.5,94.5,145.3z"/>
		<path class="st0" d="M111,139.3l5-2.9c0.5-0.3,1.3-0.1,1.5,0.5l0,0c0.3,0.5,0.1,1.3-0.5,1.5l-5,2.9c-0.5,0.3-1.3,0.1-1.5-0.5l0,0
			C110.3,140.3,110.4,139.6,111,139.3z"/>
		<path class="st0" d="M125.3,129.3l4.1-4.1c0.5-0.5,1.2-0.5,1.6,0l0,0c0.5,0.5,0.5,1.2,0,1.6l-4.1,4.1c-0.5,0.5-1.2,0.5-1.6,0l0,0
			C124.8,130.5,124.8,129.8,125.3,129.3z"/>
		<path class="st0" d="M136.5,115.9l2.9-5c0.3-0.5,1-0.7,1.5-0.5l0,0c0.5,0.3,0.7,1,0.5,1.5l-2.9,5c-0.3,0.5-1,0.7-1.5,0.5l0,0
			C136.4,117.1,136.2,116.5,136.5,115.9z"/>
		<path class="st0" d="M143.9,100.1l1.4-5.5c0.2-0.6,0.8-1,1.4-0.8l0,0c0.6,0.2,1,0.8,0.8,1.4l-1.4,5.5c-0.2,0.6-0.8,1-1.4,0.8l0,0
			C144,101.3,143.7,100.7,143.9,100.1z"/>
		<path class="st0" d="M146.8,82.9v-5.7c0-0.6,0.5-1.2,1.2-1.2l0,0c0.6,0,1.2,0.5,1.2,1.2v5.7c0,0.6-0.5,1.2-1.2,1.2l0,0
			C147.4,84,146.8,83.5,146.8,82.9z"/>
		<path class="st0" d="M145.3,65.5l-1.4-5.5c-0.2-0.6,0.2-1.3,0.8-1.4l0,0c0.6-0.2,1.3,0.2,1.4,0.8l1.4,5.5c0.2,0.6-0.2,1.3-0.8,1.4
			l0,0C146.1,66.5,145.5,66.1,145.3,65.5z"/>
		<path class="st0" d="M139.3,49l-2.9-5c-0.3-0.5-0.1-1.3,0.5-1.5l0,0c0.5-0.3,1.3-0.1,1.5,0.5l2.9,5c0.3,0.5,0.1,1.3-0.5,1.5l0,0
			C140.3,49.7,139.6,49.6,139.3,49z"/>
		<path class="st0" d="M129.3,34.7l-4.1-4.1c-0.5-0.5-0.5-1.2,0-1.6l0,0c0.5-0.5,1.2-0.5,1.6,0l4.1,4.1c0.5,0.5,0.5,1.2,0,1.6l0,0
			C130.5,35.2,129.8,35.2,129.3,34.7z"/>
		<path class="st0" d="M115.9,23.5l-5-2.9c-0.5-0.3-0.7-1-0.5-1.5l0,0c0.3-0.5,1-0.7,1.5-0.5l5,2.9c0.5,0.3,0.7,1,0.5,1.5l0,0
			C117.1,23.6,116.5,23.8,115.9,23.5z"/>
		<path class="st0" d="M100.1,16.1l-5.5-1.4c-0.6-0.2-1-0.8-0.8-1.4l0,0c0.2-0.6,0.8-1,1.4-0.8l5.5,1.4c0.6,0.2,1,0.8,0.8,1.4l0,0
			C101.3,16,100.7,16.3,100.1,16.1z"/>
	</g>
</g>
</svg>
