<?xml version="1.0" encoding="utf-8"?>
<!-- Generator: Adobe Illustrator 22.0.1, SVG Export Plug-In . SVG Version: 6.00 Build 0)  -->
<svg version="1.1" id="Layer_1" xmlns="http://www.w3.org/2000/svg" xmlns:xlink="http://www.w3.org/1999/xlink" x="0px" y="0px"
	 viewBox="0 0 1089 367" style="enable-background:new 0 0 1089 367;" xml:space="preserve">
<style type="text/css">
	.st0{fill:#38524F;}
</style>
<g>
	<g>
		<g>
			<path class="st0" d="M1085,336H752.4c-3.5,0-6.4-2.5-6.4-6s2.9-6,6.4-6H1072V17H17.9l0.9,307h321.6c3.5,0,6.4,2.5,6.4,6
				s-2.9,6-6.4,6H6.2L5.2,4H1085V336z"/>
		</g>
	</g>
	<g>
		<g>
			<g>
				<path class="st0" d="M225.5,57.9l-32,98.8h-36.2l-16.2-52.8l-17,52.8H87.9l-32-98.8h34.8l17.5,56.2l18.4-56.2h31l17.4,56.9
					l18.5-56.9H225.5z"/>
				<path class="st0" d="M240.1,57.9h33.8v98.8h-33.8L240.1,57.9L240.1,57.9z"/>
				<path class="st0" d="M297.3,57.9h33.8v73h45.2v25.8h-78.9V57.9H297.3z"/>
				<path class="st0" d="M392.7,57.9H442c11.2,0,21,2,29.5,6s15.2,9.7,19.9,17.1c4.7,7.4,7.1,16.2,7.1,26.2
					c0,10.1-2.4,18.8-7.1,26.2s-11.3,13.1-19.9,17.1c-8.5,4-18.4,6-29.5,6h-49.3V57.9z M440.6,130.7c7.2,0,13-2,17.4-6.1
					c4.3-4.1,6.5-9.9,6.5-17.3c0-7.4-2.2-13.2-6.5-17.3c-4.3-4.1-10.1-6.1-17.4-6.1h-14.2v46.8H440.6z"/>
				<path class="st0" d="M634.3,104.6h29.3v41.8c-5.9,4-12.8,7.1-20.6,9.3s-15.5,3.2-23,3.2c-10.7,0-20.3-2.2-28.7-6.6
					c-8.5-4.4-15.1-10.5-20-18.3c-4.8-7.9-7.2-16.8-7.2-26.7c0-10,2.4-18.9,7.2-26.7s11.5-14,20.2-18.3c8.6-4.4,18.4-6.6,29.2-6.6
					c9.8,0,18.6,1.6,26.4,4.9c7.8,3.2,14.2,8,19.4,14.2l-21.6,18.8c-6.3-7.2-13.8-10.9-22.5-10.9c-7.4,0-13.4,2.2-17.7,6.6
					c-4.4,4.4-6.6,10.4-6.6,18.1c0,7.4,2.2,13.4,6.5,17.9s10.1,6.8,17.4,6.8c4.3,0,8.4-0.8,12.3-2.4L634.3,104.6L634.3,104.6z"/>
				<path class="st0" d="M753.4,139.5h-38l-6.7,17.2h-34.3l43.8-98.8h33.2l43.8,98.8h-34.9L753.4,139.5z M744.1,115.5l-9.7-24.8
					l-9.7,24.8H744.1z"/>
				<path class="st0" d="M897,156.7l-0.3-45L875,147.8h-14.9l-21.7-34.6v43.5h-30.8V57.9h27.8l32.6,52.6l31.8-52.6h27.7l0.3,98.8
					L897,156.7L897,156.7z"/>
				<path class="st0" d="M1034.5,131.6v25.1h-83.2V57.9h81.4V83h-48.2v11.6h42.3v24h-42.3v13H1034.5z"/>
			</g>
			<g>
				<path class="st0" d="M737.4,351"/>
			</g>
			<g>
				<path class="st0" d="M109.6,258.7h-9v24.4H67.4v-97.2h47.4c9.1,0,17,1.5,23.8,4.4c6.8,3,12,7.2,15.6,12.8
					c3.7,5.6,5.5,12,5.5,19.4c0,6.9-1.6,13-4.8,18.2s-7.8,9.3-13.8,12.4l20.7,30h-35.5L109.6,258.7z M122.9,214.1
					c-2.3-2-5.6-3-10.1-3h-12.1v22.8h12.1c4.5,0,7.9-1,10.1-3c2.3-2,3.4-4.8,3.4-8.4C126.2,218.9,125.1,216.1,122.9,214.1z"/>
				<path class="st0" d="M261.3,258.4v24.7h-81.9v-97.2h80.1v24.7H212V222h41.7v23.6H212v12.8H261.3z"/>
				<path class="st0" d="M294,282.6c-7.7-1.8-14.1-4.2-19.1-7.3l10.7-23.9c4.7,2.7,9.9,4.8,15.8,6.5c5.8,1.6,11.4,2.4,16.8,2.4
					c4.6,0,7.9-0.4,9.9-1.3s3-2.2,3-4c0-2-1.3-3.6-3.9-4.6s-6.8-2.1-12.7-3.3c-7.6-1.6-13.9-3.3-19-5.1s-9.5-4.8-13.2-8.9
					c-3.8-4.1-5.6-9.7-5.6-16.7c0-6.1,1.7-11.7,5.2-16.7s8.7-8.9,15.6-11.8c6.9-2.9,15.3-4.3,25.1-4.3c6.8,0,13.4,0.7,19.9,2.2
					c6.5,1.4,12.3,3.5,17.2,6.3l-10,23.8c-9.7-4.8-18.8-7.2-27.5-7.2c-8.5,0-12.8,2-12.8,6.1c0,1.9,1.3,3.4,3.8,4.4s6.7,2,12.5,3.1
					c7.5,1.4,13.8,3,19,4.8s9.6,4.7,13.4,8.8s5.7,9.6,5.7,16.7c0,6.1-1.7,11.6-5.2,16.6s-8.7,8.9-15.6,11.8s-15.3,4.4-25.1,4.4
					C309.7,285.3,301.7,284.4,294,282.6z"/>
				<path class="st0" d="M403.8,278.8c-8.4-4.3-15.1-10.4-19.9-18.1c-4.8-7.7-7.2-16.5-7.2-26.2s2.4-18.4,7.2-26.2
					c4.8-7.7,11.4-13.8,19.9-18.1c8.4-4.4,18-6.5,28.6-6.5s20.1,2.2,28.6,6.5c8.4,4.4,15.1,10.4,19.9,18.1
					c4.8,7.7,7.2,16.5,7.2,26.2s-2.4,18.5-7.2,26.2c-4.8,7.7-11.4,13.8-19.9,18.1c-8.4,4.4-18,6.5-28.6,6.5
					C421.7,285.3,412.2,283.1,403.8,278.8z M443.5,255.8c3.3-2,6-4.8,8-8.5s3-7.9,3-12.8c0-4.9-1-9.2-3-12.8c-2-3.7-4.6-6.5-8-8.5
					c-3.3-2-7.1-3-11.2-3s-7.9,1-11.2,3c-3.3,2-6,4.8-8,8.5s-3,7.9-3,12.8c0,4.9,1,9.2,3,12.8c2,3.7,4.6,6.5,8,8.5
					c3.3,2,7.1,3,11.2,3C436.5,258.8,440.2,257.8,443.5,255.8z"/>
				<path class="st0" d="M518.9,273.2c-8.4-8.1-12.7-19.4-12.7-33.9v-53.5h33.2v52.5c0,7.1,1.3,12.3,3.9,15.6
					c2.6,3.2,6.3,4.9,11.2,4.9s8.6-1.6,11.2-4.9c2.6-3.2,3.9-8.4,3.9-15.6v-52.5h32.7v53.5c0,14.5-4.2,25.8-12.7,33.9
					c-8.4,8.1-20.2,12.1-35.3,12.1C539.1,285.3,527.4,281.3,518.9,273.2z"/>
				<path class="st0" d="M666.8,258.7h-9v24.4h-33.2v-97.2H672c9.1,0,17,1.5,23.8,4.4c6.8,3,12,7.2,15.6,12.8
					c3.7,5.6,5.5,12,5.5,19.4c0,6.9-1.6,13-4.8,18.2s-7.8,9.3-13.8,12.4l20.7,30h-35.5L666.8,258.7z M680,214.1c-2.3-2-5.6-3-10.1-3
					h-12.1v22.8h12.1c4.5,0,7.9-1,10.1-3c2.3-2,3.4-4.8,3.4-8.4C683.4,218.9,682.3,216.1,680,214.1z"/>
				<path class="st0" d="M759.3,278.9c-8.4-4.3-14.9-10.3-19.6-18.1c-4.7-7.7-7.1-16.5-7.1-26.3s2.4-18.6,7.1-26.3
					c4.7-7.7,11.3-13.8,19.6-18.1s17.7-6.5,28.2-6.5c9.6,0,18.1,1.7,25.6,5s13.7,8.1,18.6,14.4l-21,18.5
					c-6.1-7.6-13.3-11.4-21.5-11.4c-7,0-12.5,2.2-16.8,6.6c-4.2,4.4-6.3,10.3-6.3,17.7s2.1,13.3,6.3,17.7s9.8,6.6,16.8,6.6
					c8.3,0,15.4-3.8,21.5-11.4l21,18.5c-4.9,6.3-11.1,11.1-18.6,14.4s-16,5-25.6,5C777,285.3,767.6,283.2,759.3,278.9z"/>
				<path class="st0" d="M930.2,258.4v24.7h-81.9v-97.2h80.1v24.7H881V222h41.7v23.6H881v12.8H930.2z"/>
				<path class="st0" d="M962.9,282.6c-7.7-1.8-14.1-4.2-19.1-7.3l10.7-23.9c4.7,2.7,9.9,4.8,15.8,6.5c5.8,1.6,11.4,2.4,16.8,2.4
					c4.6,0,7.9-0.4,9.9-1.3s3-2.2,3-4c0-2-1.3-3.6-3.9-4.6c-2.6-1-6.8-2.1-12.7-3.3c-7.6-1.6-13.9-3.3-19-5.1s-9.5-4.8-13.2-8.9
					c-3.8-4.1-5.6-9.7-5.6-16.7c0-6.1,1.7-11.7,5.2-16.7s8.7-8.9,15.6-11.8c6.9-2.9,15.3-4.3,25.1-4.3c6.8,0,13.4,0.7,19.9,2.2
					c6.5,1.4,12.3,3.5,17.2,6.3l-10,23.8c-9.7-4.8-18.8-7.2-27.5-7.2c-8.5,0-12.8,2-12.8,6.1c0,1.9,1.3,3.4,3.8,4.4s6.7,2,12.5,3.1
					c7.5,1.4,13.8,3,19,4.8s9.6,4.7,13.4,8.8s5.7,9.6,5.7,16.7c0,6.1-1.7,11.6-5.2,16.6s-8.7,8.9-15.6,11.8
					c-6.9,2.9-15.3,4.4-25.1,4.4C978.6,285.3,970.7,284.4,962.9,282.6z"/>
			</g>
		</g>
		<g>
			<path class="st0" d="M385.8,338.2h-16l-2.6,7.7h-10.8l15.6-41.7h11.9l15.6,41.7h-11L385.8,338.2z M383.1,330.5l-5.3-15.5
				l-5.4,15.5H383.1z"/>
			<path class="st0" d="M419.4,304.1v24.2c0,2.8,0.6,4.9,1.9,6.4s3.1,2.2,5.5,2.2s4.2-0.7,5.5-2.2s1.9-3.6,1.9-6.4v-24.2h10.3v24.2
				c0,4-0.8,7.3-2.3,10c-1.6,2.7-3.7,4.8-6.4,6.1c-2.7,1.4-5.8,2.1-9.2,2.1c-3.4,0-6.4-0.7-9-2c-2.6-1.4-4.7-3.4-6.1-6.1
				c-1.5-2.7-2.2-6.1-2.2-10v-24.2h10.1V304.1z"/>
			<path class="st0" d="M485.8,340.5c-1.1,1.8-2.8,3.3-5,4.4s-4.9,1.6-8,1.6c-4.7,0-8.6-1.1-11.6-3.4s-4.7-5.4-5-9.5H467
				c0.2,1.6,0.7,2.8,1.7,3.7c1,0.9,2.2,1.3,3.7,1.3c1.3,0,2.3-0.4,3.1-1.1c0.8-0.7,1.1-1.6,1.1-2.8c0-1-0.3-1.9-1-2.6
				s-1.6-1.3-2.6-1.7c-1-0.5-2.5-1-4.3-1.6c-2.7-0.9-4.8-1.8-6.5-2.6c-1.7-0.8-3.1-2.1-4.3-3.7c-1.2-1.7-1.8-3.8-1.8-6.5
				c0-2.5,0.6-4.6,1.9-6.4s3-3.2,5.3-4.1c2.2-1,4.8-1.4,7.7-1.4c4.7,0,8.4,1.1,11.1,3.3c2.7,2.2,4.3,5.2,4.7,9h-11
				c-0.2-1.4-0.7-2.5-1.5-3.2c-0.8-0.8-1.9-1.2-3.3-1.2c-1.2,0-2.1,0.3-2.9,0.9c-0.7,0.6-1.1,1.5-1.1,2.7c0,1,0.3,1.8,1,2.5
				s1.5,1.2,2.5,1.7c1,0.4,2.4,1,4.3,1.6c2.7,0.9,4.9,1.8,6.6,2.7c1.7,0.9,3.2,2.2,4.4,3.8c1.2,1.7,1.8,3.9,1.8,6.6
				C487.5,336.7,487,338.7,485.8,340.5z"/>
			<path class="st0" d="M530.3,304.1v8.1h-11.6v33.9h-10.4v-33.9H497v-8.1H530.3z"/>
			<path class="st0" d="M562.6,346.1l-9.2-15.9H551v15.9h-10.3v-42h17.6c3.4,0,6.2,0.6,8.6,1.7c2.3,1.2,4.1,2.7,5.2,4.7
				c1.2,2,1.7,4.3,1.7,6.9c0,3.1-0.9,5.6-2.6,7.8c-1.7,2.1-4.2,3.6-7.4,4.4l10.1,16.5H562.6z M551,323.3h6.4c2.1,0,3.6-0.5,4.5-1.3
				c1-0.9,1.5-2.2,1.5-3.9c0-1.7-0.5-3-1.5-3.9c-1-1-2.5-1.4-4.5-1.4H551V323.3z"/>
			<path class="st0" d="M611.4,338.2h-16l-2.6,7.7H582l15.6-41.7h11.9l15.6,41.7h-11L611.4,338.2z M608.7,330.5l-5.3-15.5l-5.4,15.5
				H608.7z"/>
			<path class="st0" d="M645.3,338.4H659v7.8h-24v-42h10.3V338.4z"/>
			<path class="st0" d="M680.1,304.1v42h-10.3v-42H680.1z"/>
			<path class="st0" d="M720.2,338.2h-16l-2.6,7.7h-10.8l15.6-41.7h11.9l15.6,41.7h-11L720.2,338.2z M717.6,330.5l-5.3-15.5
				l-5.4,15.5H717.6z"/>
		</g>
	</g>
</g>
</svg>
